<?xml version="1.0" encoding="utf-8"?>
<!-- Generator: Adobe Illustrator 21.1.0, SVG Export Plug-In . SVG Version: 6.00 Build 0)  -->
<svg version="1.1" id="Layer_1" xmlns="http://www.w3.org/2000/svg" xmlns:xlink="http://www.w3.org/1999/xlink" x="0px" y="0px"
	 viewBox="0 0 458.2 84" style="enable-background:new 0 0 458.2 84;" xml:space="preserve">
<style type="text/css">
	.st0{fill:#FFE500;}
	.st1{fill:#FFFFFF;}
</style>
<g>
	<g>
		<path class="st0" d="M0,0v83.4h68V0H0z M41.1,50.9l-22,22l-8.6-8.6l21.9-21.9L10.4,20.5l8.6-8.6l22,22l-8.5,8.5L41.1,50.9z"/>
	</g>
</g>
<path class="st1" d="M125.7,24.8c7.4,0,12.1,4.2,14.2,9.6c2.3,5.8,1.6,12.5-4.3,16.7c6.7,2.9,9.1,9.1,9.1,14.6
	c0,8.8-5.8,17.7-17,17.7h-26.5V24.8H125.7z M109.7,48.1h15.8c9.2,0,9.4-15.3,0.2-15.3h-16V48.1z M109.7,75.2h18.1
	c5.7,0,8.5-4.8,8.5-9.4c0-4.6-2.8-9.3-8.5-9.3h-18.1V75.2z"/>
<path class="st1" d="M159.8,53.7h9.9c7.1,0,10.6-5.1,10.6-10.2c0-5-3.5-10.1-10.6-10.1h-13v50.1h-8.4V24.7h21.4
	c12.7,0,19.1,9.4,19.1,18.7c0,8.3-5.1,16.2-15.2,17.9l18.5,22h-11l-21.4-25.7V53.7z"/>
<path class="st1" d="M231.6,66.1h-21c-2.3,5.4-5.2,12.4-7,17.3h-9.1L217.9,24h6.2l23.5,59.4h-9.1L231.6,66.1z M213.7,58.2h14.6
	l-7.2-20.7L213.7,58.2z"/>
<path class="st1" d="M264.1,83.4V24.7l6.5,0.1l28.6,41.3V24.7h8.4v58.7h-6.7l-28.3-41v41H264.1z"/>
<path class="st1" d="M344.1,39.9c-1.2-5.3-6.9-7.5-12-7.5c-3.9,0.1-8.3,1.4-10.6,4.4c-1.2,1.5-1.6,3.4-1.4,5.4c0.4,6,7,6.8,13.3,7.4
	c8,1,18,3.1,20.3,12.5c0.3,1.3,0.4,2.7,0.4,3.9c0,11.3-11.2,17.8-21.8,17.8c-9,0-20-5.4-21.1-15.8l-0.1-1.6l8.5-0.2l0.1,1.3v-0.3
	c0.6,5.4,7.2,8.3,12.6,8.3c6.3,0,13.2-3.5,13.2-9.6c0-0.6-0.1-1.3-0.2-2c-1-4.4-7-5.2-12.9-5.8c-9.1-0.9-19.9-2.9-20.8-15.2v0.1
	c-0.3-3.9,0.7-7.9,3.2-11.1c3.9-5.1,11-7.8,17.8-7.8c9.1,0,18.4,4.7,19.9,15.4L344.1,39.9z"/>
<path class="st1" d="M357.6,65.8v-41h8.5v41.1c0,6.5,7,9.6,13.2,9.6c6.1,0,13.1-3.3,13.1-9.7v-41h8.5v41.1
	c0,11.9-11.6,18.1-21.6,18.1C369,84,357.6,77.8,357.6,65.8z"/>
<path class="st1" d="M414.4,83.4h-8.5V24.7h6.9l19.4,28.5l19.4-28.5h6.7v58.7h-8.4V42.1l-15.3,22.8h-4.8l-15.3-22.8V83.4z"/>
<path class="st1" d="M259.1,24.8h-8.5v58.6h8.5V24.8z"/>
</svg>
